<svg width="184" height="44" viewBox="0 0 184 44" fill="none" xmlns="http://www.w3.org/2000/svg">
<rect x="1" y="1" width="182" height="42" rx="3" stroke="#F5F5F5" stroke-width="2"/>
<path d="M48.5726 26.3333H44.6294V14.697H48.6522C49.8075 14.697 50.7999 14.9299 51.6294 15.3958C52.4628 15.858 53.1029 16.5227 53.5499 17.3902C53.9969 18.2576 54.2203 19.2955 54.2203 20.5038C54.2203 21.7159 53.995 22.7576 53.5442 23.6288C53.0972 24.5 52.4514 25.1686 51.6067 25.6345C50.7658 26.1004 49.7544 26.3333 48.5726 26.3333ZM46.7374 24.5095H48.4703C49.281 24.5095 49.9571 24.3618 50.4988 24.0663C51.0404 23.7671 51.4476 23.322 51.7203 22.7311C51.9931 22.1364 52.1294 21.3939 52.1294 20.5038C52.1294 19.6136 51.9931 18.875 51.7203 18.2879C51.4476 17.697 51.0442 17.2557 50.5101 16.964C49.9798 16.6686 49.3207 16.5208 48.5328 16.5208H46.7374V24.5095ZM60.7391 26.5038C59.8868 26.5038 59.1482 26.3163 58.5232 25.9413C57.8982 25.5663 57.4133 25.0417 57.0686 24.3674C56.7277 23.6932 56.5573 22.9053 56.5573 22.0038C56.5573 21.1023 56.7277 20.3125 57.0686 19.6345C57.4133 18.9564 57.8982 18.4299 58.5232 18.0549C59.1482 17.6799 59.8868 17.4924 60.7391 17.4924C61.5914 17.4924 62.33 17.6799 62.955 18.0549C63.58 18.4299 64.063 18.9564 64.4039 19.6345C64.7486 20.3125 64.9209 21.1023 64.9209 22.0038C64.9209 22.9053 64.7486 23.6932 64.4039 24.3674C64.063 25.0417 63.58 25.5663 62.955 25.9413C62.33 26.3163 61.5914 26.5038 60.7391 26.5038ZM60.7505 24.8561C61.2126 24.8561 61.5989 24.7292 61.9096 24.4754C62.2202 24.2178 62.4512 23.8731 62.6027 23.4413C62.758 23.0095 62.8357 22.5284 62.8357 21.9981C62.8357 21.464 62.758 20.9811 62.6027 20.5493C62.4512 20.1136 62.2202 19.7671 61.9096 19.5095C61.5989 19.2519 61.2126 19.1231 60.7505 19.1231C60.277 19.1231 59.883 19.2519 59.5686 19.5095C59.258 19.7671 59.0251 20.1136 58.8698 20.5493C58.7183 20.9811 58.6425 21.464 58.6425 21.9981C58.6425 22.5284 58.7183 23.0095 58.8698 23.4413C59.0251 23.8731 59.258 24.2178 59.5686 24.4754C59.883 24.7292 60.277 24.8561 60.7505 24.8561ZM69.0178 26.3333L66.5519 17.6061H68.6485L70.1826 23.7424H70.2621L71.8303 17.6061H73.9042L75.4723 23.7083H75.5576L77.0689 17.6061H79.1712L76.6996 26.3333H74.5576L72.9212 20.4356H72.8019L71.1655 26.3333H69.0178ZM83.4641 21.2197V26.3333H81.4073V17.6061H83.3732V19.089H83.4755C83.6762 18.6004 83.9963 18.2121 84.4357 17.9243C84.8789 17.6364 85.4262 17.4924 86.0777 17.4924C86.68 17.4924 87.2046 17.6212 87.6516 17.8788C88.1024 18.1364 88.4508 18.5095 88.6971 18.9981C88.9471 19.4868 89.0702 20.0796 89.0664 20.7765V26.3333H87.0096V21.0947C87.0096 20.5114 86.858 20.0549 86.555 19.7254C86.2558 19.3958 85.841 19.2311 85.3107 19.2311C84.9508 19.2311 84.6308 19.3106 84.3505 19.4697C84.0739 19.625 83.8561 19.8504 83.6971 20.1458C83.5418 20.4413 83.4641 20.7993 83.4641 21.2197ZM94.0141 14.697V26.3333H91.9573V14.697H94.0141ZM100.736 26.5038C99.8837 26.5038 99.1451 26.3163 98.5201 25.9413C97.8951 25.5663 97.4102 25.0417 97.0655 24.3674C96.7246 23.6932 96.5542 22.9053 96.5542 22.0038C96.5542 21.1023 96.7246 20.3125 97.0655 19.6345C97.4102 18.9564 97.8951 18.4299 98.5201 18.0549C99.1451 17.6799 99.8837 17.4924 100.736 17.4924C101.588 17.4924 102.327 17.6799 102.952 18.0549C103.577 18.4299 104.06 18.9564 104.401 19.6345C104.745 20.3125 104.918 21.1023 104.918 22.0038C104.918 22.9053 104.745 23.6932 104.401 24.3674C104.06 25.0417 103.577 25.5663 102.952 25.9413C102.327 26.3163 101.588 26.5038 100.736 26.5038ZM100.747 24.8561C101.209 24.8561 101.596 24.7292 101.906 24.4754C102.217 24.2178 102.448 23.8731 102.6 23.4413C102.755 23.0095 102.833 22.5284 102.833 21.9981C102.833 21.464 102.755 20.9811 102.6 20.5493C102.448 20.1136 102.217 19.7671 101.906 19.5095C101.596 19.2519 101.209 19.1231 100.747 19.1231C100.274 19.1231 99.8799 19.2519 99.5655 19.5095C99.2549 19.7671 99.022 20.1136 98.8667 20.5493C98.7151 20.9811 98.6394 21.464 98.6394 21.9981C98.6394 22.5284 98.7151 23.0095 98.8667 23.4413C99.022 23.8731 99.2549 24.2178 99.5655 24.4754C99.8799 24.7292 100.274 24.8561 100.747 24.8561ZM109.975 26.5095C109.422 26.5095 108.924 26.411 108.481 26.214C108.041 26.0133 107.693 25.7178 107.435 25.3277C107.181 24.9375 107.054 24.4564 107.054 23.8845C107.054 23.3921 107.145 22.9849 107.327 22.6629C107.509 22.3409 107.757 22.0833 108.071 21.8902C108.386 21.697 108.74 21.5511 109.134 21.4527C109.532 21.3504 109.943 21.2765 110.367 21.2311C110.878 21.178 111.293 21.1307 111.611 21.089C111.929 21.0436 112.16 20.9754 112.304 20.8845C112.452 20.7898 112.526 20.6439 112.526 20.447V20.4129C112.526 19.9849 112.399 19.6534 112.145 19.4186C111.892 19.1837 111.526 19.0663 111.049 19.0663C110.545 19.0663 110.145 19.1761 109.85 19.3958C109.558 19.6155 109.361 19.875 109.259 20.1743L107.339 19.9015C107.49 19.3712 107.74 18.928 108.089 18.572C108.437 18.2121 108.863 17.9432 109.367 17.7652C109.871 17.5833 110.428 17.4924 111.037 17.4924C111.458 17.4924 111.876 17.5417 112.293 17.6402C112.71 17.7386 113.09 17.9015 113.435 18.1288C113.78 18.3523 114.056 18.6572 114.265 19.0436C114.477 19.4299 114.583 19.9129 114.583 20.4924V26.3333H112.606V25.1345H112.537C112.412 25.3769 112.236 25.6042 112.009 25.8163C111.785 26.0246 111.503 26.1932 111.162 26.322C110.825 26.447 110.429 26.5095 109.975 26.5095ZM110.509 24.9981C110.922 24.9981 111.28 24.9167 111.583 24.7538C111.886 24.5871 112.119 24.3674 112.282 24.0947C112.448 23.822 112.532 23.5246 112.532 23.2027V22.1743C112.467 22.2273 112.357 22.2765 112.202 22.322C112.051 22.3674 111.88 22.4072 111.691 22.4413C111.501 22.4754 111.314 22.5057 111.128 22.5322C110.943 22.5587 110.782 22.5814 110.645 22.6004C110.339 22.6421 110.064 22.7102 109.821 22.8049C109.579 22.8996 109.388 23.0322 109.248 23.2027C109.107 23.3693 109.037 23.5852 109.037 23.8504C109.037 24.2292 109.176 24.5152 109.452 24.7083C109.729 24.9015 110.081 24.9981 110.509 24.9981ZM120.69 26.4868C120.004 26.4868 119.39 26.3106 118.849 25.9583C118.307 25.6061 117.879 25.0947 117.565 24.4243C117.25 23.7538 117.093 22.9394 117.093 21.9811C117.093 21.0114 117.252 20.1932 117.57 19.5265C117.892 18.8561 118.326 18.3504 118.871 18.0095C119.417 17.6648 120.025 17.4924 120.695 17.4924C121.207 17.4924 121.627 17.5796 121.957 17.7538C122.286 17.9243 122.548 18.1307 122.741 18.3731C122.934 18.6118 123.084 18.8371 123.19 19.0493H123.275V14.697H125.337V26.3333H123.315V24.9583H123.19C123.084 25.1705 122.93 25.3958 122.729 25.6345C122.529 25.8693 122.264 26.0701 121.934 26.2368C121.604 26.4034 121.19 26.4868 120.69 26.4868ZM121.264 24.7993C121.699 24.7993 122.07 24.6818 122.377 24.447C122.684 24.2083 122.917 23.8769 123.076 23.4527C123.235 23.0284 123.315 22.5341 123.315 21.9697C123.315 21.4053 123.235 20.9148 123.076 20.4981C122.921 20.0814 122.69 19.7576 122.383 19.5265C122.08 19.2955 121.707 19.1799 121.264 19.1799C120.805 19.1799 120.423 19.2993 120.116 19.5379C119.809 19.7765 119.578 20.1061 119.423 20.5265C119.267 20.947 119.19 21.428 119.19 21.9697C119.19 22.5152 119.267 23.0019 119.423 23.4299C119.582 23.8542 119.815 24.1894 120.121 24.4356C120.432 24.678 120.813 24.7993 121.264 24.7993ZM142.751 14.697V26.3333H140.876L135.393 18.4072H135.297V26.3333H133.189V14.697H135.075L140.552 22.6288H140.655V14.697H142.751ZM149.564 26.5038C148.712 26.5038 147.973 26.3163 147.348 25.9413C146.723 25.5663 146.238 25.0417 145.894 24.3674C145.553 23.6932 145.382 22.9053 145.382 22.0038C145.382 21.1023 145.553 20.3125 145.894 19.6345C146.238 18.9564 146.723 18.4299 147.348 18.0549C147.973 17.6799 148.712 17.4924 149.564 17.4924C150.416 17.4924 151.155 17.6799 151.78 18.0549C152.405 18.4299 152.888 18.9564 153.229 19.6345C153.574 20.3125 153.746 21.1023 153.746 22.0038C153.746 22.9053 153.574 23.6932 153.229 24.3674C152.888 25.0417 152.405 25.5663 151.78 25.9413C151.155 26.3163 150.416 26.5038 149.564 26.5038ZM149.575 24.8561C150.038 24.8561 150.424 24.7292 150.735 24.4754C151.045 24.2178 151.276 23.8731 151.428 23.4413C151.583 23.0095 151.661 22.5284 151.661 21.9981C151.661 21.464 151.583 20.9811 151.428 20.5493C151.276 20.1136 151.045 19.7671 150.735 19.5095C150.424 19.2519 150.038 19.1231 149.575 19.1231C149.102 19.1231 148.708 19.2519 148.394 19.5095C148.083 19.7671 147.85 20.1136 147.695 20.5493C147.543 20.9811 147.468 21.464 147.468 21.9981C147.468 22.5284 147.543 23.0095 147.695 23.4413C147.85 23.8731 148.083 24.2178 148.394 24.4754C148.708 24.7292 149.102 24.8561 149.575 24.8561ZM157.843 26.3333L155.377 17.6061H157.473L159.008 23.7424H159.087L160.655 17.6061H162.729L164.297 23.7083H164.383L165.894 17.6061H167.996L165.525 26.3333H163.383L161.746 20.4356H161.627L159.991 26.3333H157.843Z" fill="#F5F5F5"/>
<path d="M20.0953 22.3333L25.4286 27.1699L30.7619 22.3802M25.4286 14.3333V26.9048M17.4286 30.3333H33.4286" stroke="#F5F5F5" stroke-width="2" stroke-linecap="round" stroke-linejoin="round"/>
</svg>
