<svg width="184" height="44" viewBox="0 0 184 44" fill="none" xmlns="http://www.w3.org/2000/svg">
<rect x="1" y="1" width="182" height="42" rx="3" stroke="#F5F5F5" stroke-width="2"/>
<path d="M52.8566 14.697L55.885 23.8561H56.0043L59.027 14.697H61.3452L57.2429 26.3334H54.6407L50.5441 14.697H52.8566ZM63.587 26.3334V17.6061H65.6438V26.3334H63.587ZM64.6211 16.3675C64.2953 16.3675 64.015 16.2595 63.7802 16.0436C63.5453 15.8239 63.4279 15.5606 63.4279 15.2538C63.4279 14.9432 63.5453 14.68 63.7802 14.4641C64.015 14.2444 64.2953 14.1345 64.6211 14.1345C64.9506 14.1345 65.2309 14.2444 65.462 14.4641C65.6968 14.68 65.8142 14.9432 65.8142 15.2538C65.8142 15.5606 65.6968 15.8239 65.462 16.0436C65.2309 16.2595 64.9506 16.3675 64.6211 16.3675ZM75.4566 19.9129L73.5816 20.1175C73.5285 19.9281 73.4357 19.75 73.3032 19.5834C73.1744 19.4167 73.0001 19.2822 72.7804 19.18C72.5607 19.0777 72.2918 19.0266 71.9736 19.0266C71.5456 19.0266 71.1857 19.1194 70.8941 19.305C70.6062 19.4906 70.4641 19.7311 70.4679 20.0266C70.4641 20.2803 70.557 20.4868 70.7463 20.6459C70.9395 20.805 71.2577 20.9356 71.7009 21.0379L73.1895 21.3561C74.0153 21.5341 74.6289 21.8163 75.0304 22.2027C75.4357 22.5891 75.6403 23.0947 75.6441 23.7197C75.6403 24.269 75.4793 24.7538 75.1611 25.1743C74.8467 25.5909 74.4092 25.9167 73.8486 26.1516C73.288 26.3864 72.6441 26.5038 71.9168 26.5038C70.8486 26.5038 69.9888 26.2803 69.3373 25.8334C68.6857 25.3826 68.2975 24.7557 68.1725 23.9527L70.1782 23.7595C70.2691 24.1534 70.4623 24.4508 70.7577 24.6516C71.0532 24.8523 71.4376 24.9527 71.9111 24.9527C72.3998 24.9527 72.7918 24.8523 73.0873 24.6516C73.3865 24.4508 73.5361 24.2027 73.5361 23.9072C73.5361 23.6572 73.4395 23.4508 73.2463 23.2879C73.057 23.125 72.7615 23 72.36 22.9129L70.8713 22.6004C70.0342 22.4262 69.4149 22.1326 69.0134 21.7197C68.6119 21.3031 68.413 20.7766 68.4168 20.1402C68.413 19.6023 68.5588 19.1364 68.8543 18.7425C69.1535 18.3447 69.5683 18.0379 70.0986 17.822C70.6327 17.6023 71.2482 17.4925 71.9452 17.4925C72.9679 17.4925 73.7729 17.7103 74.36 18.1459C74.9509 18.5815 75.3164 19.1705 75.4566 19.9129ZM78.1401 26.3334V17.6061H80.1969V26.3334H78.1401ZM79.1742 16.3675C78.8484 16.3675 78.5681 16.2595 78.3333 16.0436C78.0984 15.8239 77.981 15.5606 77.981 15.2538C77.981 14.9432 78.0984 14.68 78.3333 14.4641C78.5681 14.2444 78.8484 14.1345 79.1742 14.1345C79.5037 14.1345 79.784 14.2444 80.0151 14.4641C80.2499 14.68 80.3674 14.9432 80.3674 15.2538C80.3674 15.5606 80.2499 15.8239 80.0151 16.0436C79.784 16.2595 79.5037 16.3675 79.1742 16.3675ZM87.4699 17.6061V19.197H82.4529V17.6061H87.4699ZM83.6915 15.5152H85.7483V23.7084C85.7483 23.9849 85.79 24.197 85.8733 24.3447C85.9605 24.4887 86.0741 24.5872 86.2142 24.6402C86.3544 24.6932 86.5097 24.7197 86.6802 24.7197C86.8089 24.7197 86.9264 24.7103 87.0324 24.6913C87.1423 24.6724 87.2256 24.6553 87.2824 24.6402L87.629 26.2481C87.5192 26.286 87.362 26.3277 87.1574 26.3731C86.9567 26.4186 86.7105 26.4451 86.4188 26.4527C85.9036 26.4678 85.4396 26.3902 85.0267 26.2197C84.6139 26.0455 84.2862 25.7766 84.0438 25.4129C83.8052 25.0493 83.6877 24.5947 83.6915 24.0493V15.5152ZM97.2986 26.3334L94.0145 14.697H96.2816L98.3782 23.2481H98.4861L100.725 14.697H102.787L105.032 23.2538H105.134L107.23 14.697H109.497L106.213 26.3334H104.134L101.804 18.1686H101.713L99.3782 26.3334H97.2986ZM114.641 26.5038C113.766 26.5038 113.011 26.322 112.374 25.9584C111.742 25.5909 111.255 25.072 110.914 24.4016C110.573 23.7273 110.403 22.9338 110.403 22.0209C110.403 21.1231 110.573 20.3353 110.914 19.6572C111.259 18.9754 111.74 18.4451 112.357 18.0663C112.975 17.6838 113.7 17.4925 114.533 17.4925C115.071 17.4925 115.579 17.5796 116.056 17.7538C116.537 17.9243 116.961 18.1894 117.329 18.5493C117.7 18.9091 117.992 19.3675 118.204 19.9243C118.416 20.4773 118.522 21.1364 118.522 21.9016V22.5322H111.369V21.1459H116.55C116.547 20.7519 116.461 20.4016 116.295 20.0947C116.128 19.7841 115.895 19.5398 115.596 19.3618C115.3 19.1838 114.956 19.0947 114.562 19.0947C114.141 19.0947 113.772 19.197 113.454 19.4016C113.136 19.6023 112.887 19.8675 112.709 20.197C112.535 20.5228 112.446 20.8807 112.442 21.2709V22.4811C112.442 22.9887 112.535 23.4243 112.721 23.7879C112.906 24.1478 113.166 24.4243 113.499 24.6175C113.833 24.8069 114.223 24.9016 114.67 24.9016C114.969 24.9016 115.24 24.8599 115.482 24.7766C115.725 24.6894 115.935 24.5625 116.113 24.3959C116.291 24.2292 116.425 24.0228 116.516 23.7766L118.437 23.9925C118.315 24.5 118.084 24.9432 117.744 25.322C117.406 25.697 116.975 25.9887 116.448 26.197C115.922 26.4016 115.319 26.5038 114.641 26.5038ZM121.153 26.3334V14.697H123.21V19.0493H123.295C123.401 18.8372 123.551 18.6118 123.744 18.3731C123.937 18.1307 124.198 17.9243 124.528 17.7538C124.857 17.5796 125.278 17.4925 125.789 17.4925C126.463 17.4925 127.071 17.6648 127.613 18.0095C128.159 18.3504 128.59 18.8561 128.909 19.5266C129.231 20.1932 129.392 21.0114 129.392 21.9811C129.392 22.9394 129.234 23.7538 128.92 24.4243C128.606 25.0947 128.178 25.6061 127.636 25.9584C127.094 26.3106 126.481 26.4868 125.795 26.4868C125.295 26.4868 124.88 26.4034 124.551 26.2368C124.221 26.0701 123.956 25.8694 123.755 25.6345C123.558 25.3959 123.405 25.1705 123.295 24.9584H123.176V26.3334H121.153ZM123.17 21.9697C123.17 22.5341 123.249 23.0284 123.409 23.4527C123.571 23.8769 123.804 24.2084 124.107 24.447C124.414 24.6819 124.785 24.7993 125.221 24.7993C125.676 24.7993 126.056 24.6781 126.363 24.4356C126.67 24.1894 126.901 23.8542 127.056 23.43C127.215 23.0019 127.295 22.5152 127.295 21.9697C127.295 21.4281 127.217 20.947 127.062 20.5266C126.907 20.1061 126.676 19.7766 126.369 19.5379C126.062 19.2993 125.679 19.18 125.221 19.18C124.782 19.18 124.409 19.2955 124.102 19.5266C123.795 19.7576 123.562 20.0815 123.403 20.4981C123.248 20.9148 123.17 21.4053 123.17 21.9697ZM138.838 19.9129L136.963 20.1175C136.91 19.9281 136.817 19.75 136.684 19.5834C136.556 19.4167 136.381 19.2822 136.162 19.18C135.942 19.0777 135.673 19.0266 135.355 19.0266C134.927 19.0266 134.567 19.1194 134.275 19.305C133.987 19.4906 133.845 19.7311 133.849 20.0266C133.845 20.2803 133.938 20.4868 134.128 20.6459C134.321 20.805 134.639 20.9356 135.082 21.0379L136.571 21.3561C137.397 21.5341 138.01 21.8163 138.412 22.2027C138.817 22.5891 139.022 23.0947 139.025 23.7197C139.022 24.269 138.861 24.7538 138.542 25.1743C138.228 25.5909 137.79 25.9167 137.23 26.1516C136.669 26.3864 136.025 26.5038 135.298 26.5038C134.23 26.5038 133.37 26.2803 132.718 25.8334C132.067 25.3826 131.679 24.7557 131.554 23.9527L133.559 23.7595C133.65 24.1534 133.843 24.4508 134.139 24.6516C134.434 24.8523 134.819 24.9527 135.292 24.9527C135.781 24.9527 136.173 24.8523 136.468 24.6516C136.768 24.4508 136.917 24.2027 136.917 23.9072C136.917 23.6572 136.821 23.4508 136.628 23.2879C136.438 23.125 136.143 23 135.741 22.9129L134.253 22.6004C133.415 22.4262 132.796 22.1326 132.395 21.7197C131.993 21.3031 131.794 20.7766 131.798 20.1402C131.794 19.6023 131.94 19.1364 132.236 18.7425C132.535 18.3447 132.95 18.0379 133.48 17.822C134.014 17.6023 134.629 17.4925 135.326 17.4925C136.349 17.4925 137.154 17.7103 137.741 18.1459C138.332 18.5815 138.698 19.1705 138.838 19.9129ZM141.521 26.3334V17.6061H143.578V26.3334H141.521ZM142.555 16.3675C142.23 16.3675 141.949 16.2595 141.715 16.0436C141.48 15.8239 141.362 15.5606 141.362 15.2538C141.362 14.9432 141.48 14.68 141.715 14.4641C141.949 14.2444 142.23 14.1345 142.555 14.1345C142.885 14.1345 143.165 14.2444 143.396 14.4641C143.631 14.68 143.749 14.9432 143.749 15.2538C143.749 15.5606 143.631 15.8239 143.396 16.0436C143.165 16.2595 142.885 16.3675 142.555 16.3675ZM150.851 17.6061V19.197H145.834V17.6061H150.851ZM147.073 15.5152H149.13V23.7084C149.13 23.9849 149.171 24.197 149.255 24.3447C149.342 24.4887 149.455 24.5872 149.595 24.6402C149.736 24.6932 149.891 24.7197 150.061 24.7197C150.19 24.7197 150.308 24.7103 150.414 24.6913C150.524 24.6724 150.607 24.6553 150.664 24.6402L151.01 26.2481C150.9 26.286 150.743 26.3277 150.539 26.3731C150.338 26.4186 150.092 26.4451 149.8 26.4527C149.285 26.4678 148.821 26.3902 148.408 26.2197C147.995 26.0455 147.667 25.7766 147.425 25.4129C147.186 25.0493 147.069 24.5947 147.073 24.0493V15.5152ZM157.141 26.5038C156.266 26.5038 155.511 26.322 154.874 25.9584C154.242 25.5909 153.755 25.072 153.414 24.4016C153.073 23.7273 152.903 22.9338 152.903 22.0209C152.903 21.1231 153.073 20.3353 153.414 19.6572C153.759 18.9754 154.24 18.4451 154.857 18.0663C155.475 17.6838 156.2 17.4925 157.033 17.4925C157.571 17.4925 158.079 17.5796 158.556 17.7538C159.037 17.9243 159.461 18.1894 159.829 18.5493C160.2 18.9091 160.492 19.3675 160.704 19.9243C160.916 20.4773 161.022 21.1364 161.022 21.9016V22.5322H153.869V21.1459H159.05C159.047 20.7519 158.961 20.4016 158.795 20.0947C158.628 19.7841 158.395 19.5398 158.096 19.3618C157.8 19.1838 157.456 19.0947 157.062 19.0947C156.641 19.0947 156.272 19.197 155.954 19.4016C155.636 19.6023 155.387 19.8675 155.209 20.197C155.035 20.5228 154.946 20.8807 154.942 21.2709V22.4811C154.942 22.9887 155.035 23.4243 155.221 23.7879C155.406 24.1478 155.666 24.4243 155.999 24.6175C156.333 24.8069 156.723 24.9016 157.17 24.9016C157.469 24.9016 157.74 24.8599 157.982 24.7766C158.225 24.6894 158.435 24.5625 158.613 24.3959C158.791 24.2292 158.925 24.0228 159.016 23.7766L160.937 23.9925C160.815 24.5 160.584 24.9432 160.244 25.322C159.906 25.697 159.475 25.9887 158.948 26.197C158.422 26.4016 157.819 26.5038 157.141 26.5038Z" fill="#F5F5F5"/>
<path d="M30.6733 23.6733L29.9381 24.4084C28.9579 25.3886 27.3688 25.3886 26.3886 24.4084L20.7351 18.755C19.755 17.7748 19.755 16.1856 20.7351 15.2054L22.2054 13.7352C23.1856 12.7549 24.7748 12.7549 25.7549 13.7352L27.745 15.7253M27.3267 20.3267L28.0619 19.5917C29.0421 18.6114 30.6313 18.6114 31.6114 19.5917L37.2648 25.2451C38.2451 26.2252 38.2451 27.8144 37.2648 28.7946L35.7946 30.2649C34.8144 31.245 33.2252 31.245 32.245 30.2649L30.2549 28.2748" stroke="#F5F5F5" stroke-width="2" stroke-linecap="round" stroke-linejoin="round"/>
</svg>
